<?xml version="1.0" encoding="UTF-8" standalone="no"?>
<!-- Created with Inkscape (http://www.inkscape.org/) -->

<svg
   width="210mm"
   height="297mm"
   viewBox="0 0 210 297"
   version="1.1"
   id="svg1"
   inkscape:version="1.3 (0e150ed6c4, 2023-07-21)"
   sodipodi:docname="zadanie18.10.2023.svg"
   xmlns:inkscape="http://www.inkscape.org/namespaces/inkscape"
   xmlns:sodipodi="http://sodipodi.sourceforge.net/DTD/sodipodi-0.dtd"
   xmlns="http://www.w3.org/2000/svg"
   xmlns:svg="http://www.w3.org/2000/svg">
  <sodipodi:namedview
     id="namedview1"
     pagecolor="#ffffff"
     bordercolor="#eeeeee"
     borderopacity="1"
     inkscape:showpageshadow="0"
     inkscape:pageopacity="0"
     inkscape:pagecheckerboard="0"
     inkscape:deskcolor="#505050"
     inkscape:document-units="mm"
     inkscape:zoom="0.69219276"
     inkscape:cx="200.08877"
     inkscape:cy="601.711"
     inkscape:window-width="1920"
     inkscape:window-height="991"
     inkscape:window-x="-9"
     inkscape:window-y="-9"
     inkscape:window-maximized="1"
     inkscape:current-layer="layer1" />
  <defs
     id="defs1" />
  <g
     inkscape:label="Warstwa 1"
     inkscape:groupmode="layer"
     id="layer1">
    <path
       id="rect17"
       style="fill:#ff2a2a;fill-rule:evenodd;stroke:#9f0000;stroke-width:1.065;stroke-dasharray:none;stroke-opacity:1"
       d="M 130.72572,3.057661 V 30.363488 L 102.99769,7.868221 47.819672,59.589611 55.424892,59.485225 V 140.28184 H 153.66023 V 58.140604 L 164.77687,57.988159 141.04653,38.736104 V 3.057661 Z" />
    <text
       xml:space="preserve"
       style="font-size:5.64444444px;fill:#ff2a2a;stroke:#9f0000;stroke-width:1.065;stroke-dasharray:none;stroke-dashoffset:0;stroke-opacity:1"
       x="86.00386"
       y="162.83397"
       id="text22"><tspan
         sodipodi:role="line"
         id="tspan22"
         style="stroke-width:1.065;font-size:5.64444444px"
         x="86.00386"
         y="162.83397" /></text>
    <text
       xml:space="preserve"
       style="font-size:4.93889px;fill:#000000;fill-opacity:1;stroke:none;stroke-width:1.065;stroke-dasharray:none;stroke-dashoffset:0;stroke-opacity:1"
       x="94.413124"
       y="150.22006"
       id="text23"><tspan
         sodipodi:role="line"
         id="tspan23"
         style="font-size:4.93889px;fill:#000000;fill-opacity:1;stroke:none;stroke-width:1.065;stroke-opacity:1"
         x="94.413124"
         y="150.22006">Scalanie</tspan></text>
    <path
       d="m 106.58228,228.67999 -1.43991,1.37667 -5.961344,-0.64918 -1.563168,1.49452 3.171172,3.31683 -1.109344,1.06063 -7.976144,-8.3425 2.336348,-2.23375 q 0.756372,-0.72316 1.357041,-1.10441 0.595312,-0.38686 1.239762,-0.52042 0.727015,-0.14815 1.396963,0.0478 0.670193,0.185 1.307642,0.85173 0.862432,0.90205 0.992492,1.94664 0.1247,1.03899 -0.376273,2.10779 z m -8.325758,-3.51479 q -0.34283,-0.35858 -0.734172,-0.50991 -0.391096,-0.16229 -0.864567,-0.0742 -0.396264,0.0679 -0.78575,0.32227 -0.394843,0.24882 -0.843063,0.67735 l -1.305442,1.24812 3.010472,3.14874 1.120551,-1.07134 q 0.526659,-0.50353 0.833144,-0.96814 0.301129,-0.47022 0.334612,-0.98482 0.02714,-0.47637 -0.144463,-0.89141 -0.171358,-0.426 -0.621322,-0.89663 z m 16.616508,11.65597 -5.20098,-5.54738 8.42004,-7.89426 5.20098,5.54739 -0.99525,0.9331 -4.15124,-4.42773 -2.30717,2.1631 4.15124,4.42773 -0.99525,0.9331 -4.15124,-4.42773 -3.12712,2.93185 4.15124,4.42773 z m -2.12213,13.00609 0.40669,-1.47993 9.58963,2.63526 -5.67479,-4.88752 0.24237,-0.88197 7.36932,-1.27885 -9.58963,-2.63526 0.37999,-1.38276 11.12935,3.05838 -0.55457,2.01808 -7.01169,1.26458 5.40753,4.57292 -0.56485,2.05545 z m -5.57973,15.44878 q -0.98397,-0.36085 -1.83383,-1.18515 -0.85673,-0.82071 -1.51659,-2.08516 -0.65987,-1.26445 -0.83986,-2.44707 -0.18327,-1.17216 0.0805,-2.15792 0.27002,-1.024 0.95299,-1.82634 0.6761,-0.79874 1.78249,-1.37613 1.0789,-0.56303 2.15187,-0.66831 1.0661,-0.10169 2.03962,0.25587 0.97351,0.35757 1.82666,1.17141 0.84627,0.81743 1.50972,2.08875 0.65269,1.2507 0.83925,2.41241 0.19015,1.16857 -0.0727,2.20632 -0.25328,0.98904 -0.96016,1.81259 -0.71374,0.82714 -1.77203,1.37942 -1.09952,0.57379 -2.16233,0.66503 -1.0661,0.10169 -2.02557,-0.24572 z m -1.93479,-4.00907 q 1.04,1.99288 2.49639,2.60557 1.45999,0.61957 3.00618,-0.18733 1.55995,-0.81408 1.88668,-2.36606 0.32345,-1.54152 -0.71655,-3.5344 -1.05076,-2.01349 -2.51732,-2.61214 -1.46296,-0.59178 -2.98855,0.20436 -1.52558,0.79614 -1.86994,2.33109 -0.34766,1.54542 0.70311,3.55891 z m -15.563709,-5.24266 1.888656,0.19898 4.360594,10.84152 1.081818,-10.26812 1.426128,0.15025 -1.209329,11.4784 -2.366601,-0.24934 -3.976862,-9.89694 -0.987605,9.3739 -1.426128,-0.15025 z m -15.460322,2.35456 3.394925,2.34095 5.777565,-8.37883 1.263525,0.87125 -5.777565,8.37883 3.394926,2.34095 -0.774449,1.12314 -8.053376,-5.55315 z m -0.572962,-24.59332 0.339599,1.49675 -9.69862,2.20054 7.309368,1.63223 0.202387,0.89201 -5.894368,4.60421 9.69862,-2.20054 0.317303,1.39847 -11.255842,2.55386 -0.46309,-2.04102 5.585769,-4.42291 -6.925302,-1.48092 -0.471666,-2.07882 z m 1.182461,-7.20961 -0.691131,4.50516 -1.164598,-0.17866 0.229201,-1.49406 -9.07927,-1.39284 -0.229201,1.49406 -1.164599,-0.17866 0.691131,-4.50516 1.164599,0.17866 -0.229202,1.49406 9.07927,1.39284 0.229202,-1.49406 z m 3.916871,-9.42847 -3.301019,6.85032 -10.397688,-5.01041 3.301019,-6.85032 1.229008,0.59223 -2.634758,5.46769 2.849064,1.3729 2.634758,-5.46769 1.229008,0.59223 -2.634758,5.46769 3.8616,1.86082 2.634758,-5.46769 z m 5.206106,-10.20761 q 0.472797,0.48088 0.708104,1.17352 0.240834,0.6872 0.157968,1.41003 -0.09439,0.78851 -0.490173,1.56899 -0.390262,0.77503 -1.219368,1.5902 -0.889908,0.87495 -1.765973,1.41017 -0.870538,0.52979 -1.926312,0.92646 l -1.347745,-1.37079 0.07738,-0.0761 q 1.135433,-0.0945 2.230642,-0.61693 1.095209,-0.5224 1.813767,-1.22888 1.017038,-0.99994 1.205852,-1.93564 0.194343,-0.94114 -0.43062,-1.57679 -0.538011,-0.54721 -1.064272,-0.54071 -0.520734,0.001 -1.20924,0.39537 -0.523242,0.29704 -1.080299,0.70341 -0.55153,0.40095 -1.201902,0.82297 -1.322667,0.84388 -2.402176,0.80732 -1.079415,-0.0475 -1.965231,-0.94848 -1.016244,-1.03362 -0.789619,-2.55002 0.221191,-1.52193 1.564343,-2.8425 0.867798,-0.85321 1.754918,-1.39931 0.88712,-0.54609 1.684501,-0.85177 l 1.271663,1.29341 -0.07738,0.0761 q -0.861108,0.064 -1.884833,0.55956 -1.023632,0.48465 -1.825101,1.27264 -0.878853,0.86408 -1.056334,1.75603 -0.171954,0.88651 0.393229,1.46136 0.505405,0.51405 1.058745,0.54614 0.55334,0.0321 1.374318,-0.4707 0.429834,-0.27042 1.190754,-0.80114 0.760919,-0.53072 1.328287,-0.86027 1.156661,-0.65892 2.104627,-0.62347 0.947966,0.0354 1.81748,0.91982 z m 12.067843,-2.63078 -8.123643,3.89052 -0.616054,-1.28636 2.602834,-10.94977 -6.145165,2.94299 -0.589269,-1.23043 7.732142,-3.70302 0.599313,1.25141 -2.649013,11.01486 6.599586,-3.16063 z m 11.607632,-1.94285 -1.97135,0.28699 -5.25836,-4.42787 -0.958809,1.37723 0.563937,3.87366 -1.518779,0.2211 -1.662778,-11.42153 1.51878,-0.2211 0.867681,5.96006 4.678168,-6.76744 1.84094,-0.26801 -4.31925,6.11203 z m 10.78731,1.49647 -1.61908,-0.23155 -0.6649,-3.34468 -4.94166,-0.70672 -1.57574,3.02423 -1.54235,-0.22057 5.79301,-10.83089 2.02577,0.28971 z m -2.5655,-4.94764 -1.20055,-5.89567 -2.81263,5.32172 z m 12.20258,9.4152 -1.70898,-0.82825 -0.42164,-11.67799 -4.50301,9.29126 -1.29045,-0.62542 5.03376,-10.3864 2.14146,1.03785 0.38132,10.65925 4.11085,-8.48212 1.29045,0.62542 z m 5.16214,-15.14794 -3.16865,1.6859 -1.03934,-0.50372 2.51296,-2.00367 z"
       id="text24"
       style="font-size:15.875px;white-space:pre;fill:#00ff00;stroke-width:1.067;stroke:#3cd86a;stroke-opacity:1;stroke-dasharray:none"
       aria-label="REMONT MIESZKAŃ " />
    <text
       xml:space="preserve"
       style="font-size:4.93889px;fill:#000000;fill-opacity:1;stroke:none;stroke-width:1.067;stroke-dasharray:none;stroke-dashoffset:0;stroke-opacity:1"
       x="86.768341"
       y="284.76831"
       id="text28"><tspan
         sodipodi:role="line"
         id="tspan28"
         style="font-size:4.93889px;fill:#000000;fill-opacity:1;stroke:none;stroke-width:1.067"
         x="86.768341"
         y="284.76831">Tekst na spirali</tspan></text>
  </g>
</svg>
